<svg width="60" height="60" viewBox="0 0 60 60" fill="none" xmlns="http://www.w3.org/2000/svg">
<g clip-path="url(#clip0_43_39)">
<mask id="mask0_43_39" style="mask-type:luminance" maskUnits="userSpaceOnUse" x="0" y="0" width="60" height="60">
<path d="M60 0H0V60H60V0Z" fill="white"/>
</mask>
<g mask="url(#mask0_43_39)">
<path d="M14.1588 22.6461C14.1588 22.9533 14.2061 23.1897 14.3006 23.355C14.4187 23.4969 14.7023 23.5677 15.1513 23.5677H18.5896C19.0385 23.5677 19.5466 23.5441 20.1137 23.4969C20.7045 23.426 21.3189 23.2487 21.9569 22.9652C22.6186 22.658 23.2803 22.1972 23.9419 21.5827C24.6273 20.9447 25.2771 20.0586 25.8914 18.9243H26.4586L25.4306 25.092C24.4382 25.0446 23.1385 25.0092 21.5316 24.9855C19.9246 24.962 17.9397 24.9501 15.5766 24.9501C13.2136 24.9501 11.264 24.962 9.72803 24.9855C8.21566 25.0092 7.08138 25.0446 6.3252 25.092V24.2412L8.73553 23.7804C9.34993 23.7095 9.65713 23.4613 9.65713 23.036V5.2066C9.65713 4.75762 9.57443 4.47405 9.40901 4.3559C9.2436 4.23774 9.0191 4.14322 8.73553 4.07233L6.82144 3.61153V2.68993C8.0975 2.76082 10.0116 2.79626 12.5637 2.79626C15.1158 2.79626 16.6991 2.76082 17.3136 2.68993V3.61153L15.0804 4.07233C14.7732 4.14322 14.5369 4.23774 14.3715 4.3559C14.2297 4.45042 14.1588 4.73399 14.1588 5.2066V22.6461ZM43.2917 25.4464C41.5429 25.4464 39.9006 25.1864 38.3646 24.6666C36.8523 24.123 35.529 23.3669 34.3946 22.398C33.2603 21.4055 32.3625 20.2121 31.7008 18.818C31.0628 17.4236 30.7437 15.876 30.7437 14.1745C30.7437 12.4258 31.0745 10.8307 31.7362 9.38925C32.4216 7.94777 33.3431 6.71897 34.5009 5.70285C35.6589 4.68673 37.0059 3.90691 38.5419 3.3634C40.1016 2.79626 41.7557 2.5127 43.5043 2.5127C45.2766 2.5127 46.9071 2.80808 48.3959 3.39885C49.9083 3.98962 51.2197 4.80488 52.3305 5.84463C53.4411 6.86076 54.3036 8.07774 54.918 9.49559C55.556 10.8898 55.8751 12.414 55.8751 14.0681C55.8751 15.7223 55.5679 17.2464 54.9534 18.6407C54.3626 20.0349 53.512 21.2401 52.4013 22.2563C51.3143 23.2487 49.9909 24.0286 48.4314 24.5956C46.8954 25.1627 45.1822 25.4464 43.2917 25.4464ZM35.8834 14.3517C35.8834 15.5569 36.0488 16.7503 36.3797 17.9318C36.7342 19.0896 37.2422 20.1295 37.9039 21.051C38.5656 21.9726 39.3571 22.717 40.2788 23.2841C41.224 23.8513 42.2991 24.1349 43.5043 24.1349C45.8437 24.1349 47.6397 23.3078 48.8922 21.6536C50.1682 19.9995 50.8062 17.5418 50.8062 14.2808C50.8062 12.8866 50.6526 11.5633 50.3454 10.3108C50.0382 9.05842 49.5656 7.9714 48.9276 7.0498C48.3133 6.10457 47.5334 5.3602 46.5882 4.8167C45.643 4.24956 44.544 3.96599 43.2917 3.96599C42.0156 3.96599 40.905 4.26137 39.9597 4.85214C39.0382 5.44291 38.2702 6.22273 37.6557 7.19159C37.0649 8.16045 36.616 9.27109 36.3088 10.5235C36.0253 11.776 35.8834 13.052 35.8834 14.3517Z" fill="black"/>
<path d="M29.4006 46.7756L27.7702 47.0236C27.3683 47.0945 27.0848 47.2008 26.9194 47.3427C26.7775 47.4608 26.7068 47.6853 26.7068 48.0162V51.9507C26.7068 52.6359 26.6831 53.1676 26.6359 53.5458C26.6122 53.9002 26.5295 54.1956 26.3877 54.4319C26.2695 54.6445 26.0686 54.8218 25.7851 54.9636C25.5015 55.0818 25.1117 55.2353 24.6154 55.4244C24.1428 55.6134 23.5992 55.7788 22.9849 55.9207C22.3942 56.0624 21.756 56.1924 21.0708 56.3105C20.3855 56.4051 19.6766 56.4759 18.944 56.5233C18.2351 56.5705 17.5499 56.5941 16.8882 56.5941C15.1395 56.5941 13.4735 56.3578 11.8902 55.8851C10.307 55.389 8.92456 54.6682 7.74303 53.723C6.56149 52.7778 5.61626 51.6199 4.90733 50.2493C4.22204 48.855 3.87939 47.2599 3.87939 45.4641C3.87939 43.3845 4.25749 41.6004 5.01367 40.1116C5.79349 38.5993 6.82143 37.3587 8.09749 36.3898C9.37355 35.3973 10.8505 34.6765 12.5283 34.2276C14.206 33.755 15.9665 33.5187 17.8097 33.5187C20.9526 33.5187 23.5757 34.0858 25.6788 35.2201L25.9623 41.175L25.1117 41.2814C24.7572 40.407 24.3437 39.5918 23.8711 38.8356C23.422 38.0558 22.9022 37.3824 22.3114 36.8151C21.7206 36.2244 21.0354 35.7636 20.2555 35.4328C19.4994 35.1019 18.6486 34.9365 17.7034 34.9365C16.2146 34.9365 14.915 35.1847 13.8043 35.6808C12.7173 36.1771 11.8193 36.8742 11.1104 37.7722C10.4015 38.6465 9.8698 39.7099 9.51533 40.9624C9.16087 42.1911 8.98364 43.5499 8.98364 45.0387C8.98364 46.4328 9.17269 47.7562 9.55078 49.0087C9.92887 50.2374 10.4842 51.3245 11.2167 52.2698C11.9729 53.1913 12.8945 53.9239 13.9815 54.4673C15.0922 55.0108 16.3683 55.2827 17.8097 55.2827C18.684 55.2827 19.4048 55.1881 19.972 54.999C20.5628 54.8101 21.0235 54.5501 21.3543 54.2193C21.7088 53.8884 21.9451 53.5104 22.0632 53.085C22.2051 52.6596 22.276 52.2107 22.276 51.7381V48.0162C22.276 47.6381 22.1814 47.3899 21.9923 47.2718C21.8269 47.1536 21.5552 47.071 21.1771 47.0236L18.6249 46.7756V45.6767C20.4682 45.7713 22.2642 45.8185 24.0128 45.8185C25.7615 45.8185 27.5574 45.7713 29.4006 45.6767V46.7756ZM43.7736 56.5233C42.0248 56.5233 40.3825 56.2633 38.8465 55.7434C37.3342 55.1999 36.0108 54.4438 34.8765 53.4748C33.7422 52.4824 32.8443 51.289 32.1826 49.8948C31.5446 48.5005 31.2255 46.9528 31.2255 45.2513C31.2255 43.5027 31.5563 41.9076 32.218 40.4661C32.9034 39.0247 33.8249 37.7959 34.9828 36.7798C36.1408 35.7636 37.4877 34.9838 39.0237 34.4402C40.5834 33.8731 42.2375 33.5896 43.9862 33.5896C45.7585 33.5896 47.3889 33.885 48.8777 34.4758C50.3902 35.0665 51.7015 35.8818 52.8123 36.9214C53.9229 37.9376 54.7854 39.1547 55.3999 40.5725C56.0379 41.9667 56.3569 43.4908 56.3569 45.145C56.3569 46.7991 56.0497 48.3233 55.4352 49.7176C54.8445 51.1118 53.9939 52.317 52.8831 53.3331C51.7962 54.3256 50.4728 55.1054 48.9132 55.6725C47.3772 56.2396 45.664 56.5233 43.7736 56.5233ZM36.3652 45.4285C36.3652 46.6338 36.5306 47.8271 36.8616 49.0087C37.216 50.1665 37.724 51.2064 38.3857 52.1279C39.0474 53.0494 39.8389 53.7939 40.7606 54.361C41.7059 54.9282 42.7809 55.2118 43.9862 55.2118C46.3256 55.2118 48.1215 54.3847 49.374 52.7305C50.65 51.0764 51.288 48.6187 51.288 45.3578C51.288 43.9634 51.1345 42.6402 50.8272 41.3878C50.52 40.1353 50.0474 39.0482 49.4094 38.1267C48.7951 37.1814 48.0152 36.4371 47.07 35.8936C46.1248 35.3264 45.0259 35.0428 43.7736 35.0428C42.4974 35.0428 41.3868 35.3382 40.4415 35.929C39.52 36.5198 38.752 37.2996 38.1375 38.2685C37.5468 39.2373 37.0979 40.3479 36.7906 41.6004C36.5071 42.8528 36.3652 44.1288 36.3652 45.4285Z" fill="black"/>
</g>
</g>
<defs>
<clipPath id="clip0_43_39">
<rect width="60" height="60" fill="white"/>
</clipPath>
</defs>
</svg>
